<mxfile host="app.diagrams.net" modified="2022-01-07T08:10:09.594Z" agent="5.0 (Windows NT 10.0; Win64; x64) AppleWebKit/537.36 (KHTML, like Gecko) Chrome/96.0.4664.110 Safari/537.36" etag="vPAkgp9rc1ShXOdfyI4a" version="14.8.0" type="github">
  <diagram id="cqtTLqStkhQXooxpLTyE" name="Page-1">
    <mxGraphModel dx="942" dy="574" grid="1" gridSize="10" guides="1" tooltips="1" connect="1" arrows="1" fold="1" page="1" pageScale="1" pageWidth="850" pageHeight="1100" math="0" shadow="0">
      <root>
        <mxCell id="0" />
        <mxCell id="1" parent="0" />
        <mxCell id="NsdHCGjpmlzPTO6aymvT-27" value="" style="verticalLabelPosition=bottom;verticalAlign=top;html=1;shape=mxgraph.basic.rect;fillColor2=none;strokeWidth=1;size=20;indent=5;" vertex="1" parent="1">
          <mxGeometry x="660" width="390" height="370" as="geometry" />
        </mxCell>
        <mxCell id="NsdHCGjpmlzPTO6aymvT-7" value="" style="verticalLabelPosition=bottom;verticalAlign=top;html=1;shape=mxgraph.basic.rect;fillColor2=none;strokeWidth=1;size=20;indent=5;" vertex="1" parent="1">
          <mxGeometry x="110" y="30" width="500" height="450" as="geometry" />
        </mxCell>
        <mxCell id="NsdHCGjpmlzPTO6aymvT-13" style="edgeStyle=orthogonalEdgeStyle;rounded=0;orthogonalLoop=1;jettySize=auto;html=1;entryX=0.357;entryY=-0.019;entryDx=0;entryDy=0;entryPerimeter=0;fontSize=17;" edge="1" parent="1" source="NsdHCGjpmlzPTO6aymvT-1" target="NsdHCGjpmlzPTO6aymvT-2">
          <mxGeometry relative="1" as="geometry" />
        </mxCell>
        <mxCell id="NsdHCGjpmlzPTO6aymvT-16" value="" style="edgeStyle=orthogonalEdgeStyle;rounded=0;orthogonalLoop=1;jettySize=auto;html=1;fontSize=17;" edge="1" parent="1" source="NsdHCGjpmlzPTO6aymvT-1" target="NsdHCGjpmlzPTO6aymvT-10">
          <mxGeometry relative="1" as="geometry" />
        </mxCell>
        <mxCell id="NsdHCGjpmlzPTO6aymvT-1" value="" style="points=[[0.5,0,0],[1,0.5,0],[0.5,1,0],[0,0.5,0],[0.145,0.145,0],[0.8555,0.145,0],[0.855,0.8555,0],[0.145,0.855,0]];verticalLabelPosition=bottom;html=1;verticalAlign=top;aspect=fixed;align=center;pointerEvents=1;shape=mxgraph.cisco19.rect;prIcon=router;fillColor=#FAFAFA;strokeColor=#005073;" vertex="1" parent="1">
          <mxGeometry x="120" y="50" width="120" height="120" as="geometry" />
        </mxCell>
        <mxCell id="NsdHCGjpmlzPTO6aymvT-23" style="edgeStyle=orthogonalEdgeStyle;rounded=0;orthogonalLoop=1;jettySize=auto;html=1;fontSize=17;" edge="1" parent="1" source="NsdHCGjpmlzPTO6aymvT-2" target="NsdHCGjpmlzPTO6aymvT-8">
          <mxGeometry relative="1" as="geometry" />
        </mxCell>
        <mxCell id="NsdHCGjpmlzPTO6aymvT-24" style="edgeStyle=orthogonalEdgeStyle;rounded=0;orthogonalLoop=1;jettySize=auto;html=1;fontSize=17;" edge="1" parent="1" source="NsdHCGjpmlzPTO6aymvT-2" target="NsdHCGjpmlzPTO6aymvT-4">
          <mxGeometry relative="1" as="geometry" />
        </mxCell>
        <mxCell id="NsdHCGjpmlzPTO6aymvT-37" style="edgeStyle=orthogonalEdgeStyle;rounded=0;orthogonalLoop=1;jettySize=auto;html=1;fontSize=17;" edge="1" parent="1" source="NsdHCGjpmlzPTO6aymvT-2" target="NsdHCGjpmlzPTO6aymvT-36">
          <mxGeometry relative="1" as="geometry" />
        </mxCell>
        <mxCell id="NsdHCGjpmlzPTO6aymvT-2" value="" style="points=[];aspect=fixed;html=1;align=center;shadow=0;dashed=0;image;image=img/lib/allied_telesis/switch/Switch_24_port_L2.svg;" vertex="1" parent="1">
          <mxGeometry x="152.8" y="190" width="74.4" height="51" as="geometry" />
        </mxCell>
        <mxCell id="NsdHCGjpmlzPTO6aymvT-4" value="" style="fontColor=#0066CC;verticalAlign=top;verticalLabelPosition=bottom;labelPosition=center;align=center;html=1;outlineConnect=0;fillColor=#CCCCCC;strokeColor=#6881B3;gradientColor=none;gradientDirection=north;strokeWidth=2;shape=mxgraph.networks.pc;" vertex="1" parent="1">
          <mxGeometry x="340" y="260" width="100" height="70" as="geometry" />
        </mxCell>
        <mxCell id="NsdHCGjpmlzPTO6aymvT-5" value="" style="image;html=1;image=img/lib/clip_art/networking/Wireless_Router_N_128x128.png" vertex="1" parent="1">
          <mxGeometry x="140" y="370" width="80" height="80" as="geometry" />
        </mxCell>
        <mxCell id="NsdHCGjpmlzPTO6aymvT-6" value="" style="image;html=1;image=img/lib/clip_art/networking/Wireless_Router_N_128x128.png" vertex="1" parent="1">
          <mxGeometry x="390" y="50" width="80" height="80" as="geometry" />
        </mxCell>
        <mxCell id="NsdHCGjpmlzPTO6aymvT-8" value="" style="fontColor=#0066CC;verticalAlign=top;verticalLabelPosition=bottom;labelPosition=center;align=center;html=1;outlineConnect=0;fillColor=#CCCCCC;strokeColor=#6881B3;gradientColor=none;gradientDirection=north;strokeWidth=2;shape=mxgraph.networks.pc;" vertex="1" parent="1">
          <mxGeometry x="480" y="260" width="100" height="70" as="geometry" />
        </mxCell>
        <mxCell id="NsdHCGjpmlzPTO6aymvT-18" value="" style="edgeStyle=orthogonalEdgeStyle;rounded=0;orthogonalLoop=1;jettySize=auto;html=1;fontSize=17;" edge="1" parent="1" source="NsdHCGjpmlzPTO6aymvT-10" target="NsdHCGjpmlzPTO6aymvT-6">
          <mxGeometry relative="1" as="geometry" />
        </mxCell>
        <mxCell id="NsdHCGjpmlzPTO6aymvT-22" style="edgeStyle=orthogonalEdgeStyle;rounded=0;orthogonalLoop=1;jettySize=auto;html=1;fontSize=17;" edge="1" parent="1" source="NsdHCGjpmlzPTO6aymvT-10" target="NsdHCGjpmlzPTO6aymvT-5">
          <mxGeometry relative="1" as="geometry">
            <Array as="points">
              <mxPoint x="297" y="410" />
            </Array>
          </mxGeometry>
        </mxCell>
        <mxCell id="NsdHCGjpmlzPTO6aymvT-30" style="edgeStyle=orthogonalEdgeStyle;rounded=0;orthogonalLoop=1;jettySize=auto;html=1;fontSize=17;" edge="1" parent="1" source="NsdHCGjpmlzPTO6aymvT-10" target="NsdHCGjpmlzPTO6aymvT-29">
          <mxGeometry relative="1" as="geometry">
            <Array as="points">
              <mxPoint x="297" y="170" />
              <mxPoint x="730" y="170" />
            </Array>
          </mxGeometry>
        </mxCell>
        <mxCell id="NsdHCGjpmlzPTO6aymvT-10" value="" style="points=[];aspect=fixed;html=1;align=center;shadow=0;dashed=0;image;image=img/lib/allied_telesis/switch/Switch_24_port_L2.svg;" vertex="1" parent="1">
          <mxGeometry x="260" y="84.5" width="74.4" height="51" as="geometry" />
        </mxCell>
        <mxCell id="NsdHCGjpmlzPTO6aymvT-11" value="CCR Mikrotik" style="text;html=1;strokeColor=none;fillColor=none;align=center;verticalAlign=middle;whiteSpace=wrap;rounded=0;fontSize=17;" vertex="1" parent="1">
          <mxGeometry x="120" y="33" width="120" height="20" as="geometry" />
        </mxCell>
        <mxCell id="NsdHCGjpmlzPTO6aymvT-15" value="switch local" style="text;html=1;strokeColor=none;fillColor=none;align=center;verticalAlign=middle;whiteSpace=wrap;rounded=0;fontSize=17;" vertex="1" parent="1">
          <mxGeometry x="135" y="241" width="90" height="20" as="geometry" />
        </mxCell>
        <mxCell id="NsdHCGjpmlzPTO6aymvT-17" value="switch AP" style="text;html=1;strokeColor=none;fillColor=none;align=center;verticalAlign=middle;whiteSpace=wrap;rounded=0;fontSize=17;" vertex="1" parent="1">
          <mxGeometry x="244.4" y="64.5" width="90" height="20" as="geometry" />
        </mxCell>
        <mxCell id="NsdHCGjpmlzPTO6aymvT-19" value="AP TU" style="text;html=1;strokeColor=none;fillColor=none;align=center;verticalAlign=middle;whiteSpace=wrap;rounded=0;fontSize=17;" vertex="1" parent="1">
          <mxGeometry x="390" y="130" width="90" height="20" as="geometry" />
        </mxCell>
        <mxCell id="NsdHCGjpmlzPTO6aymvT-20" value="AP Free" style="text;html=1;strokeColor=none;fillColor=none;align=center;verticalAlign=middle;whiteSpace=wrap;rounded=0;fontSize=17;" vertex="1" parent="1">
          <mxGeometry x="130" y="350" width="90" height="20" as="geometry" />
        </mxCell>
        <mxCell id="NsdHCGjpmlzPTO6aymvT-25" value="PC TU kesiswaan" style="text;html=1;strokeColor=none;fillColor=none;align=center;verticalAlign=middle;whiteSpace=wrap;rounded=0;fontSize=17;" vertex="1" parent="1">
          <mxGeometry x="350" y="350" width="90" height="20" as="geometry" />
        </mxCell>
        <mxCell id="NsdHCGjpmlzPTO6aymvT-26" value="PC TU keuangan" style="text;html=1;strokeColor=none;fillColor=none;align=center;verticalAlign=middle;whiteSpace=wrap;rounded=0;fontSize=17;" vertex="1" parent="1">
          <mxGeometry x="500" y="350" width="90" height="20" as="geometry" />
        </mxCell>
        <mxCell id="NsdHCGjpmlzPTO6aymvT-29" value="" style="image;html=1;image=img/lib/clip_art/networking/Wireless_Router_N_128x128.png" vertex="1" parent="1">
          <mxGeometry x="690" y="241" width="80" height="80" as="geometry" />
        </mxCell>
        <mxCell id="NsdHCGjpmlzPTO6aymvT-31" value="AP R.guru sma" style="text;html=1;strokeColor=none;fillColor=none;align=center;verticalAlign=middle;whiteSpace=wrap;rounded=0;fontSize=17;" vertex="1" parent="1">
          <mxGeometry x="685" y="330" width="85" height="20" as="geometry" />
        </mxCell>
        <mxCell id="NsdHCGjpmlzPTO6aymvT-32" value="" style="fontColor=#0066CC;verticalAlign=top;verticalLabelPosition=bottom;labelPosition=center;align=center;html=1;outlineConnect=0;fillColor=#CCCCCC;strokeColor=#6881B3;gradientColor=none;gradientDirection=north;strokeWidth=2;shape=mxgraph.networks.pc;" vertex="1" parent="1">
          <mxGeometry x="790" y="55" width="100" height="70" as="geometry" />
        </mxCell>
        <mxCell id="NsdHCGjpmlzPTO6aymvT-33" value="" style="fontColor=#0066CC;verticalAlign=top;verticalLabelPosition=bottom;labelPosition=center;align=center;html=1;outlineConnect=0;fillColor=#CCCCCC;strokeColor=#6881B3;gradientColor=none;gradientDirection=north;strokeWidth=2;shape=mxgraph.networks.pc;" vertex="1" parent="1">
          <mxGeometry x="930" y="55" width="100" height="70" as="geometry" />
        </mxCell>
        <mxCell id="NsdHCGjpmlzPTO6aymvT-39" style="edgeStyle=orthogonalEdgeStyle;rounded=0;orthogonalLoop=1;jettySize=auto;html=1;entryX=0.95;entryY=1;entryDx=0;entryDy=0;entryPerimeter=0;fontSize=17;" edge="1" parent="1" source="NsdHCGjpmlzPTO6aymvT-36" target="NsdHCGjpmlzPTO6aymvT-33">
          <mxGeometry relative="1" as="geometry">
            <Array as="points">
              <mxPoint x="1025" y="156" />
            </Array>
          </mxGeometry>
        </mxCell>
        <mxCell id="NsdHCGjpmlzPTO6aymvT-40" style="edgeStyle=orthogonalEdgeStyle;rounded=0;orthogonalLoop=1;jettySize=auto;html=1;fontSize=17;" edge="1" parent="1" source="NsdHCGjpmlzPTO6aymvT-36" target="NsdHCGjpmlzPTO6aymvT-32">
          <mxGeometry relative="1" as="geometry">
            <Array as="points">
              <mxPoint x="860" y="156" />
              <mxPoint x="840" y="156" />
            </Array>
          </mxGeometry>
        </mxCell>
        <mxCell id="NsdHCGjpmlzPTO6aymvT-36" value="" style="points=[];aspect=fixed;html=1;align=center;shadow=0;dashed=0;image;image=img/lib/allied_telesis/switch/Switch_24_port_L2.svg;" vertex="1" parent="1">
          <mxGeometry x="879.9999999999999" y="130" width="74.4" height="51" as="geometry" />
        </mxCell>
        <mxCell id="NsdHCGjpmlzPTO6aymvT-41" value="PC guru 1" style="text;html=1;strokeColor=none;fillColor=none;align=center;verticalAlign=middle;whiteSpace=wrap;rounded=0;fontSize=17;" vertex="1" parent="1">
          <mxGeometry x="795" y="20" width="90" height="20" as="geometry" />
        </mxCell>
        <mxCell id="NsdHCGjpmlzPTO6aymvT-43" value="PC guru 2" style="text;html=1;strokeColor=none;fillColor=none;align=center;verticalAlign=middle;whiteSpace=wrap;rounded=0;fontSize=17;" vertex="1" parent="1">
          <mxGeometry x="930" y="20" width="90" height="20" as="geometry" />
        </mxCell>
        <mxCell id="NsdHCGjpmlzPTO6aymvT-44" value="switch" style="text;html=1;strokeColor=none;fillColor=none;align=center;verticalAlign=middle;whiteSpace=wrap;rounded=0;fontSize=17;" vertex="1" parent="1">
          <mxGeometry x="830" y="161" width="90" height="20" as="geometry" />
        </mxCell>
      </root>
    </mxGraphModel>
  </diagram>
</mxfile>
